<?xml version="1.0" encoding="utf-8"?>
<!-- Generator: Adobe Illustrator 25.0.0, SVG Export Plug-In . SVG Version: 6.00 Build 0)  -->
<svg version="1.1" xmlns="http://www.w3.org/2000/svg" xmlns:xlink="http://www.w3.org/1999/xlink" x="0px" y="0px"
	 viewBox="0 0 1024 1024" style="enable-background:new 0 0 1024 1024;" xml:space="preserve">
<style type="text/css">
	.st0{fill:url(#SVGID_1_);}
	.st1{fill:url(#SVGID_2_);}
	.st2{fill:url(#SVGID_3_);}
	.st3{fill:none;stroke:url(#SVGID_4_);stroke-width:10;stroke-miterlimit:10;}
	.st4{display:none;}
	.st5{display:inline;}
</style>
<g id="图层_1">
	<g>
		<g>
			<linearGradient id="SVGID_1_" gradientUnits="userSpaceOnUse" x1="156.3118" y1="527.9321" x2="605.1305" y2="527.9321">
				<stop  offset="0" style="stop-color:#FF7300"/>
				<stop  offset="0.1771" style="stop-color:#F97C01"/>
				<stop  offset="0.4705" style="stop-color:#EA9602"/>
				<stop  offset="0.5521" style="stop-color:#E59E03"/>
				<stop  offset="0.8652" style="stop-color:#E5C500"/>
				<stop  offset="0.9944" style="stop-color:#BF6F00"/>
			</linearGradient>
			<path class="st0" d="M546.78,833.83c-0.76,1.93-1.17,3.98-1.48,6.02c-0.65,4.21-1.18,8.44-1.43,12.7
				c-0.42,7.04-0.36,14.11-0.21,21.16c0.32,15.58,1.3,31.14,1.61,46.73c0.12,6.21,0.29,12.55-0.52,18.73
				c0.21-1.6,0.43-3.19,0.64-4.79c-0.19,1.41-0.43,2.86-0.98,4.18c0.6-1.43,1.21-2.87,1.81-4.3c-0.15,0.34-0.32,0.68-0.55,0.97
				c0.94-1.21,1.88-2.43,2.81-3.64c-0.11,0.14-0.23,0.26-0.37,0.37c1.21-0.94,2.43-1.88,3.64-2.81c-0.09,0.07-0.18,0.12-0.28,0.17
				c1.43-0.6,2.87-1.21,4.3-1.81c-0.1,0.04-0.2,0.07-0.3,0.09c1.6-0.21,3.19-0.43,4.79-0.64c-0.13,0.02-0.26,0.01-0.39,0
				c1.6,0.21,3.19,0.43,4.79,0.64c-0.15-0.03-0.28-0.07-0.42-0.12c1.43,0.6,2.87,1.21,4.3,1.81c-0.25-0.11-0.47-0.26-0.68-0.42
				c1.21,0.94,2.43,1.88,3.64,2.81c-0.53-0.43-0.97-0.94-1.39-1.48c0.94,1.21,1.88,2.43,2.81,3.64c-2.84-3.75-4.68-8.33-6.5-12.62
				c0.6,1.43,1.21,2.87,1.81,4.3c-8.31-19.72-14.92-40.3-20.92-60.83c-5.76-19.71-10.53-39.69-14.2-59.89
				c-1.88-10.37-3.48-20.79-4.89-31.23c0.21,1.6,0.43,3.19,0.64,4.79c-2.6-19.36-4.55-38.81-6.69-58.22
				c-0.65-5.91-1.32-11.81-2.01-17.72c-11.79,1.6-23.57,3.19-35.36,4.79c7.44,38.12,14.89,76.23,22.33,114.35
				c2.1,10.77,4.21,21.54,6.31,32.32c0.6,1.43,1.21,2.87,1.81,4.3c1.13,2.1,2.68,3.78,4.64,5.05c3.04,2.35,6.96,4.04,10.91,3.86
				c3.2-0.14,6.26-0.96,9.08-2.46c4.35-2.3,6.52-6.44,8.27-10.76c14.1-34.72,25.59-70.49,35.44-106.63
				c9.84-36.11,18.05-72.71,24.15-109.64c5.21-31.58,9.57-63.77,9.39-95.85c-0.09-16.1-1.33-32.25-2.59-48.3
				c-1.32-16.79-3.03-33.55-5.19-50.25c-4.08-31.49-9.42-62.8-17-93.65c-6.27-25.5-13.97-50.68-23.57-75.14
				c-8.78-22.38-18.85-44.3-31.08-65.02c-10.59-17.94-22.82-35.05-36.67-50.63c-12.11-13.61-25.79-25.77-40.76-36.18
				c-13.44-9.35-28.27-16.76-43.79-21.99c-14.39-4.85-29.79-7.41-44.97-7.59c-15.1-0.18-30.51,2.12-44.91,6.65
				c-15.06,4.74-29.57,11.71-42.68,20.51c-14.45,9.7-27.72,21.22-39.4,34.11c-13.11,14.48-24.68,30.49-34.61,47.31
				c-11.25,19.06-20.46,39.3-28.35,59.95c-8.5,22.25-15.16,45.2-20.37,68.44c-6.21,27.73-10.39,55.93-13.14,84.2
				c-2.98,30.59-4.07,61.35-3.68,92.08c0.44,34.42,2.74,68.82,6.52,103.03c2.15,19.44,4.75,38.84,7.73,58.17
				c0.64,4.16,4.8,8.73,8.27,10.76c3.86,2.26,9.54,3.21,13.87,1.81c4.36-1.41,8.56-4.11,10.76-8.27c0.6-1.43,1.21-2.87,1.81-4.3
				c0.86-3.19,0.86-6.38,0-9.57c-1.27-8.22-2.46-16.46-3.57-24.71c0.21,1.6,0.43,3.19,0.64,4.79c-4.75-35.36-8.02-70.92-9.39-106.57
				c-1.22-31.58-0.96-63.23,1.18-94.77c1.09-16.14,2.69-32.24,4.83-48.27c-0.21,1.6-0.43,3.19-0.64,4.79
				c2.62-19.46,6.06-38.82,10.51-57.95c4.03-17.35,8.89-34.53,14.74-51.36c3.05-8.77,6.37-17.45,9.98-26
				c-0.6,1.43-1.21,2.87-1.81,4.3c8.55-20.21,18.74-39.78,31.06-57.97c3.13-4.62,6.39-9.14,9.8-13.55
				c-0.94,1.21-1.88,2.43-2.81,3.64c8.87-11.47,18.71-22.22,29.64-31.77c2.86-2.5,5.8-4.92,8.81-7.24
				c-1.21,0.94-2.43,1.88-3.64,2.81c8.57-6.61,17.74-12.47,27.44-17.27c2.64-1.31,5.32-2.54,8.04-3.69c-1.43,0.6-2.87,1.21-4.3,1.81
				c8.56-3.6,17.46-6.39,26.58-8.17c2.56-0.5,5.13-0.92,7.72-1.27c-1.6,0.21-3.19,0.43-4.79,0.64c8.63-1.14,17.38-1.41,26.06-0.76
				c2.48,0.19,4.96,0.45,7.43,0.77c-1.6-0.21-3.19-0.43-4.79-0.64c9.24,1.25,18.32,3.49,27.1,6.61c2.59,0.92,5.16,1.92,7.69,2.99
				c-1.43-0.6-2.87-1.21-4.3-1.81c10.19,4.31,19.87,9.73,28.97,16.01c2.74,1.89,5.43,3.86,8.07,5.9c-1.21-0.94-2.43-1.88-3.64-2.81
				c11.93,9.23,22.76,19.81,32.58,31.25c3,3.5,5.91,7.07,8.73,10.72c-0.94-1.21-1.88-2.43-2.81-3.64
				c14.73,19.07,27.04,39.92,37.5,61.6c3.27,6.77,6.35,13.63,9.28,20.56c-0.6-1.43-1.21-2.87-1.81-4.3
				c8.11,19.24,14.98,39,20.83,59.04c6.61,22.61,11.94,45.59,16.26,68.74c2.67,14.31,4.95,28.69,6.89,43.12
				c-0.21-1.6-0.43-3.19-0.64-4.79c3.16,23.54,5.43,47.19,6.93,70.9c0.7,10.93,1.42,21.9,1.45,32.86
				c0.03,9.57-0.41,19.13-1.11,28.67c-0.91,12.4-2.28,24.77-3.94,37.09c0.21-1.6,0.43-3.19,0.64-4.79
				c-4.25,31.48-10.31,62.71-17.56,93.63c-7.64,32.63-16.64,64.97-27.21,96.77c-5.66,17.02-11.78,33.88-18.53,50.5
				c11.57,0,23.14,0,34.71,0c-7.44-38.12-14.89-76.23-22.33-114.35c-2.1-10.77-4.21-21.54-6.31-32.32
				c-0.79-4.06-4.66-8.85-8.27-10.76c-3.64-1.92-7.38-2.69-11.48-2.14c-3.78,0.51-7.68,2.06-10.34,4.95
				c-3.01,3.28-5.82,8.1-5.27,12.73c3.88,32.93,6.76,66,11.99,98.76c5.69,35.64,14.79,70.55,26.52,104.68
				c4.8,13.98,9.54,28.49,16.41,41.63c1.78,3.41,4,6.9,6.8,9.52c7.62,7.13,20.17,8.4,27.81,0.34c6.46-6.82,7.26-16.05,7.56-25
				c0.28-8.33-0.06-16.68-0.38-25c-0.71-18.77-2.27-37.79-0.87-56.56c0.12-1.67,0.29-3.34,0.51-5c-0.21,1.6-0.43,3.19-0.64,4.79
				c0.33-2.42,0.75-4.86,1.65-7.14c1.6-4.08,0.31-10.24-1.81-13.87c-2.18-3.73-6.47-7.29-10.76-8.27
				c-4.61-1.05-9.78-0.82-13.87,1.81c-1.21,0.94-2.43,1.88-3.64,2.81C549.18,828.14,547.64,830.79,546.78,833.83L546.78,833.83z"/>
		</g>
	</g>
	<g>
		<g>
			<linearGradient id="SVGID_2_" gradientUnits="userSpaceOnUse" x1="294.6689" y1="748.8594" x2="883.4689" y2="748.8594">
				<stop  offset="0" style="stop-color:#FF7300"/>
				<stop  offset="0.1771" style="stop-color:#F97C01"/>
				<stop  offset="0.4705" style="stop-color:#EA9602"/>
				<stop  offset="0.5521" style="stop-color:#E59E03"/>
				<stop  offset="0.8652" style="stop-color:#E5C500"/>
				<stop  offset="0.9944" style="stop-color:#BF6F00"/>
			</linearGradient>
			<path class="st1" d="M295.2,803.34c38.64-4.15,77.19-9.17,115.61-15.04c37.41-5.71,74.69-12.26,111.81-19.65
				c37.07-7.38,73.97-15.59,110.67-24.63c36.82-9.07,73.43-18.97,109.8-29.71c36.13-10.66,72.02-22.14,107.63-34.44
				c4.38-1.51,8.76-3.04,13.14-4.58c7.1-2.5,11.78-8.76,10.74-16.46c-1.04-7.75-7.19-12.36-14.73-13.01
				c-29.94-2.56-59.89-5.13-89.83-7.69c-14.6-1.25-29.2-2.5-43.79-3.75c-13.76-1.18-27.58-2.75-41.41-2.69
				c-15.09,0.07-29.91,2.38-43.69,8.65c-11.36,5.16-20.56,13.53-28.05,23.37c-13.61,17.89-19.22,42.5-16.57,64.65
				c3.84,32.09,19.86,60.04,36.37,87.2c1.89,3.11,5.33,6.07,8.96,6.89c4.18,0.95,7.66,0.2,11.56-1.51
				c11.78-5.19,21.47-13.84,29.1-24.07c7.59-10.18,11.59-22.19,12.89-34.73c-8.54,3.54-17.07,7.07-25.61,10.61
				c1.27,1.56,2.53,3.12,3.78,4.7c0.41,0.53,0.83,1.05,1.24,1.58c-0.37-0.48-0.75-0.96-1.12-1.45c0.68,0.7,1.23,1.61,1.82,2.4
				c2.41,3.2,4.75,6.45,7.03,9.75c4.54,6.56,8.83,13.31,12.84,20.21c3.99,6.87,7.72,13.9,11.15,21.06
				c1.64,3.42,3.22,6.88,4.73,10.36c0.2,0.45,0.39,0.91,0.59,1.36c-0.8-1.91-0.99-2.35-0.55-1.31c0.38,0.91,0.76,1.83,1.13,2.74
				c0.8,1.98,1.58,3.98,2.35,5.98c3.49-6.15,6.98-12.3,10.48-18.45c-2.28,0.92-4.6,1.73-6.97,2.39c-2.29,0.64-5.42,1.79-7.82,1.66
				c0.03,0,4.14-0.49,1.73-0.24c-0.5,0.05-1.01,0.11-1.51,0.16c-1.26,0.12-2.53,0.21-3.79,0.26c-2.55,0.11-5.1,0.1-7.65-0.01
				c-2.32-0.1-4.64-0.29-6.95-0.55c-0.52-0.06-3.19-0.41-0.34-0.02c2.86,0.39,0.18,0.02-0.34-0.06c-1.31-0.2-2.61-0.41-3.91-0.64
				c-5.3-0.94-10.54-2.16-15.75-3.5c-21.32-5.48-42.11-12.73-64.17-14.79c-12.28-1.15-25.13-0.1-36.82,3.96
				c-6.05,2.11-11.32,7.62-11.01,14.46c0.31,6.9,4.5,12.25,11.01,14.46c35.31,12,73.6,14.01,110.17,7.15
				c9.74-1.83,19.32-4.4,28.68-7.66c7.39-2.58,13.09-10.38,10.48-18.45c-2.37-7.31-10.52-13.24-18.45-10.48
				c-8.09,2.82-16.34,5.13-24.72,6.88c-4.12,0.86-8.27,1.57-12.43,2.19c-2.88,0.43,2.87-0.34-0.02,0c-1,0.12-2.01,0.24-3.01,0.35
				c-2.18,0.24-4.36,0.44-6.55,0.6c-8.58,0.65-17.2,0.76-25.8,0.32c-4.21-0.21-8.42-0.56-12.61-1.03c-1.01-0.11-2.01-0.24-3.01-0.36
				c-1.72-0.2,1.53,0.21,1.48,0.2c-0.49-0.1-1-0.14-1.5-0.22c-2.17-0.32-4.33-0.68-6.48-1.07c-9.59-1.75-19.02-4.21-28.25-7.35
				c0,9.64,0,19.29,0,28.93c2.33-0.81,4.7-1.51,7.11-2.07c1.13-0.26,2.26-0.49,3.4-0.69c0.63-0.11,1.26-0.2,1.9-0.31
				c1.2-0.18,0.51-0.08-2.08,0.28c0.51-0.06,1.02-0.12,1.53-0.17c4.87-0.48,9.78-0.48,14.66-0.13c1.3,0.09,2.6,0.21,3.9,0.35
				c0.52,0.06,1.04,0.12,1.56,0.18c2.43,0.27-1.55-0.22-1.64-0.23c2.63,0.22,5.28,0.82,7.87,1.32c5.33,1.04,10.6,2.32,15.84,3.71
				c21.15,5.6,41.96,12.78,63.95,14.29c12.17,0.83,24.94-0.57,36.3-5.16c3.6-1.45,7.05-3.27,8.96-6.89
				c1.78-3.37,2.93-7.84,1.51-11.56c-12.63-33.03-30.33-63.25-52.69-90.62c-3.74-4.58-11.38-5.22-16.39-3.1
				c-5.87,2.48-8.59,7.57-9.22,13.71c-0.22,2.1,0.24-1.22,0.25-1.59c-0.02,0.65-0.21,1.34-0.33,1.98c-0.2,1.06-0.43,2.1-0.69,3.14
				c-0.3,1.17-0.64,2.33-1.01,3.48c-0.18,0.55-0.62,2.77-1.11,3.04c0.44-0.25,1.57-3.53,0.39-0.98c-0.23,0.49-0.46,0.98-0.7,1.47
				c-0.48,0.97-0.99,1.93-1.53,2.88c-0.61,1.07-1.25,2.11-1.92,3.14c-0.3,0.46-0.61,0.91-0.92,1.36c-0.33,0.48-1.88,2.48-0.29,0.47
				c1.59-2.01-0.71,0.83-1.17,1.36c-0.82,0.94-1.66,1.85-2.53,2.74c-1.67,1.69-3.45,3.21-5.26,4.73c-1.42,1.19,2.59-1.85,1.04-0.82
				c-0.46,0.31-0.91,0.65-1.37,0.97c-1.04,0.72-2.1,1.4-3.18,2.05c-2.18,1.31-4.45,2.45-6.78,3.47c6.84,1.79,13.68,3.59,20.52,5.38
				c-6.68-10.99-13.34-22-19.12-33.49c-1.43-2.85-2.81-5.73-4.11-8.64c-0.46-1.03-1.96-5.52-0.67-1.48c-0.55-1.73-1.37-3.41-2-5.11
				c-2.19-5.88-4.02-11.91-5.34-18.05c-0.31-1.45-0.59-2.91-0.85-4.37c-0.11-0.65-0.21-1.31-0.32-1.96
				c-0.59-3.41,0.31,3.19,0.04,0.27c-0.23-2.43-0.44-4.85-0.5-7.3c-0.06-2.45-0.01-4.91,0.14-7.36c0.07-1.03,0.15-2.07,0.25-3.1
				c0.06-0.65,0.15-1.29,0.22-1.93c0.18-1.64-0.63,4.19-0.1,0.9c0.81-4.99,2.06-9.91,3.79-14.66c0.35-0.97,0.79-1.91,1.12-2.89
				c-1.63,4.8-0.16,0.47,0.38-0.65c1.12-2.31,2.37-4.56,3.74-6.73c0.55-0.87,1.11-1.72,1.7-2.56c0.37-0.53,0.75-1.04,1.12-1.56
				c1.13-1.59-2.52,3.06-0.7,0.91c1.66-1.96,3.34-3.88,5.2-5.66c0.74-0.71,1.51-1.41,2.29-2.08c0.49-0.42,1-0.82,1.49-1.24
				c1.5-1.27-3.19,2.33-0.88,0.68c2.15-1.53,4.35-2.96,6.67-4.22c1.14-0.61,2.31-1.14,3.46-1.72c1.92-0.97-3.55,1.31-0.47,0.19
				c0.6-0.22,1.2-0.46,1.8-0.68c3.02-1.09,6.12-1.96,9.26-2.63c1.42-0.31,2.85-0.57,4.28-0.81c0.16-0.03,0.32-0.05,0.48-0.08
				c1.65-0.24,1.28-0.2-1.1,0.13c0.39,0.1,1.64-0.19,1.94-0.22c3.26-0.34,6.54-0.53,9.82-0.61c12.95-0.31,25.89,1.06,38.77,2.16
				c14.22,1.22,28.45,2.43,42.67,3.65c32.19,2.75,64.38,5.51,96.57,8.26c-1.33-9.82-2.66-19.64-3.99-29.46
				c-35.36,12.43-71.01,24.06-106.89,34.88c-36.13,10.89-72.5,20.96-109.08,30.2c-36.46,9.21-73.14,17.61-109.98,25.18
				c-36.89,7.58-73.95,14.33-111.14,20.26c-18.79,2.99-37.61,5.77-56.46,8.34c-1.07,0.15-2.13,0.29-3.2,0.43
				c-1.73,0.23,1.31-0.18,1.32-0.18c-0.53,0.06-1.07,0.14-1.6,0.21c-2.49,0.33-4.98,0.66-7.48,0.98c-4.63,0.6-9.26,1.19-13.89,1.77
				c-9.44,1.17-18.9,2.3-28.35,3.36c-4.64,0.52-9.28,1.03-13.92,1.53c-4.09,0.44-7.59,1.38-10.61,4.39
				c-2.6,2.6-4.56,6.87-4.39,10.61C280.53,795.75,286.85,804.24,295.2,803.34L295.2,803.34z"/>
		</g>
	</g>
	<g>
		<g>
			<linearGradient id="SVGID_3_" gradientUnits="userSpaceOnUse" x1="782.77" y1="812.5369" x2="843.5203" y2="812.5369">
				<stop  offset="0" style="stop-color:#FF7300"/>
				<stop  offset="0.1771" style="stop-color:#F97C01"/>
				<stop  offset="0.4705" style="stop-color:#EA9602"/>
				<stop  offset="0.5521" style="stop-color:#E59E03"/>
				<stop  offset="0.8652" style="stop-color:#E5C500"/>
				<stop  offset="0.9944" style="stop-color:#BF6F00"/>
			</linearGradient>
			<path class="st2" d="M832.93,783.7c-12.48,9.45-25.87,17.67-39.93,24.54c-4,1.95-8.05,3.79-12.15,5.53
				c1.19-0.5,2.39-1.01,3.58-1.51c-1.25,0.53-2.51,1.05-3.77,1.56c-1.95,0.46-3.65,1.36-5.1,2.68c-1.63,1.06-2.92,2.46-3.86,4.21
				c-1.88,3.22-2.68,7.95-1.51,11.56c1.17,3.63,3.42,7.13,6.89,8.96c3.33,1.76,7.9,2.99,11.56,1.51
				c16.71-6.76,32.78-14.82,47.78-24.84c3.97-2.65,7.85-5.42,11.66-8.3c1.75-0.94,3.15-2.23,4.21-3.86c1.33-1.45,2.22-3.15,2.68-5.1
				c0.99-3.59,0.54-8.37-1.51-11.56c-2.06-3.2-5.14-6.02-8.96-6.89C840.82,781.35,836.07,781.32,832.93,783.7L832.93,783.7z"/>
		</g>
	</g>
	<linearGradient id="SVGID_4_" gradientUnits="userSpaceOnUse" x1="59.2122" y1="512.2231" x2="964.3333" y2="512.2231">
		<stop  offset="0" style="stop-color:#FF7300"/>
		<stop  offset="0.1771" style="stop-color:#F97C01"/>
		<stop  offset="0.4705" style="stop-color:#EA9602"/>
		<stop  offset="0.5521" style="stop-color:#E59E03"/>
		<stop  offset="0.8652" style="stop-color:#E5C500"/>
		<stop  offset="0.9944" style="stop-color:#BF6F00"/>
	</linearGradient>
	<ellipse class="st3" cx="511.77" cy="512.22" rx="447.56" ry="448"/>
</g>
<g id="图层_3">
</g>
<g id="图层_2" class="st4">
	<g class="st5">
		<g>
			<path d="M130.39,376.9c6.63-21.5,19.6-40.43,35.83-55.85c16.73-15.89,36.72-28.07,57.97-36.93
				c25.14-10.48,51.81-16.69,78.54-21.5c13.36-2.4,26.78-4.51,40.2-6.53c13.3-2.01,27.23-3.51,40.08,1.5
				c19.52,7.61,30.97,27.41,38.07,46.04c4.26,11.19,7.27,22.83,10.03,34.47c3.3,13.92,5.98,27.98,8.03,42.14
				c2.06,14.22,3.47,28.54,4.24,42.89c0.69,12.87,1.86,26.85-6.86,37.47c-3.85,4.69-8.68,8.45-13.49,12.09
				c-5.3,4.01-10.61,8.02-16.1,11.78c-10.77,7.37-22.43,13.82-35.33,16.48c-12.17,2.51-25.31,1.55-36.1-5.02
				c-9.31-5.66-15.88-14.73-20.54-24.41c-5.07-10.54-8.15-22.04-10.37-33.48c-2.54-13.03-3.68-26.57-1.72-39.75
				c0.93-6.25,2.57-12.36,4.96-18.2c0.73-1.79-2.17-2.56-2.89-0.8c-5.15,12.58-6.63,26.31-5.82,39.81
				c0.77,12.95,3.35,25.94,7.2,38.32c3.33,10.74,7.96,21.31,15.14,30.07c7.56,9.23,17.99,15.45,29.86,17.16
				c27.45,3.96,51.2-12.73,71.92-28.39c4.91-3.71,9.93-7.42,14.08-12.01c4.3-4.75,7.28-10.3,8.53-16.6
				c1.33-6.67,1.05-13.53,0.75-20.28c-0.33-7.3-0.82-14.58-1.48-21.86c-2.64-29.11-7.81-58.08-15.74-86.22
				c-5.68-20.17-14.17-41.82-30.64-55.67c-8.74-7.36-19.28-11.53-30.68-12.3c-7.18-0.48-14.37,0.24-21.47,1.22
				c-7.06,0.97-14.1,2.13-21.14,3.24c-27.65,4.38-55.35,9.32-82.01,18.03c-23.79,7.77-46.54,18.62-66.37,34.01
				c-18.17,14.09-33.85,31.89-43.61,52.84c-2.33,5-4.32,10.15-5.94,15.42C126.93,377.96,129.82,378.75,130.39,376.9L130.39,376.9z"
				/>
		</g>
	</g>
	<g class="st5">
		<g>
			<path d="M312.33,403.31c4.43,48.28,9.07,96.54,13.94,144.78c4.85,47.99,9.91,95.97,15.2,143.91c2.99,27.15,6.06,54.3,9.2,81.44
				c1,0,2,0,3,0c-4.27-32.89-9.6-65.64-15.71-98.25c-6.11-32.6-12.99-65.05-20.33-97.4c-4.15-18.3-8.46-36.56-12.85-54.81
				c-0.45-1.88-3.35-1.08-2.89,0.8c7.74,32.13,15.19,64.33,22.05,96.67c6.86,32.32,13.13,64.77,18.51,97.37
				c3.05,18.49,5.81,37.03,8.22,55.62c0.24,1.88,3.22,1.93,3,0c-5.57-48.16-10.91-96.35-16.03-144.57
				c-5.09-47.97-9.97-95.96-14.62-143.98c-2.63-27.19-5.2-54.39-7.69-81.59C315.16,401.4,312.15,401.39,312.33,403.31L312.33,403.31
				z"/>
		</g>
	</g>
	<g class="st5">
		<g>
			<path d="M243.67,597.67c20.41-19.08,42.31-36.49,65.07-52.68c22.74-16.18,46.31-31.16,70.19-45.6
				c24.17-14.61,48.65-28.71,73.09-42.86c25.91-15,51.87-29.92,78.11-44.34c26.22-14.41,52.73-28.32,79.7-41.29
				c3.28-1.58,6.56-3.14,9.85-4.68c1.75-0.82,0.22-3.41-1.51-2.59c-27.19,12.79-53.9,26.58-80.3,40.92
				c-26.31,14.29-52.31,29.14-78.23,44.11c-24.75,14.3-49.53,28.57-74.07,43.24c-24.05,14.39-47.84,29.25-70.86,45.24
				c-22.77,15.82-44.8,32.76-65.42,51.31c-2.6,2.34-5.18,4.7-7.73,7.09C240.14,596.87,242.26,598.99,243.67,597.67L243.67,597.67z"
				/>
		</g>
	</g>
	<g class="st5">
		<g>
			<path d="M547.16,326.84c-4.34,19.52-8.35,39.11-12.02,58.77c-3.67,19.66-7.01,39.38-10.02,59.15
				c-2.99,19.71-5.66,39.47-7.99,59.26c-2.35,19.96-4.36,39.96-6.02,59.98c-1.66,19.93-2.98,39.89-3.96,59.86
				c-0.12,2.47-0.24,4.94-0.35,7.42c-0.04,0.87,0.72,1.42,1.5,1.5c12.24,1.21,22.64-6.51,30.41-15.16
				c4.11-4.57,7.69-9.56,11.18-14.61c4.04-5.84,8-11.74,11.65-17.84c7.08-11.83,13.07-24.59,15.42-38.27
				c1.91-11.1,1.03-22.73-2.94-33.3c-4.25-11.31-12.1-21.32-23.28-26.36c-1.75-0.79-3.27,1.8-1.51,2.59
				c19.65,8.87,27.56,32.41,25.36,52.64c-1.42,13.05-6.72,25.47-13.1,36.82c-3.26,5.81-6.86,11.42-10.59,16.94
				c-3.51,5.2-7.02,10.43-10.96,15.32c-7.77,9.64-18.3,19.55-31.64,18.23c0.5,0.5,1,1,1.5,1.5c0.89-19.88,2.12-39.74,3.68-59.58
				c1.57-19.94,3.48-39.84,5.73-59.72c2.24-19.84,4.82-39.63,7.74-59.38c2.91-19.68,6.15-39.32,9.73-58.89
				c3.59-19.67,7.52-39.28,11.78-58.82c0.53-2.42,1.06-4.84,1.6-7.25C550.47,325.76,547.58,324.96,547.16,326.84L547.16,326.84z"/>
		</g>
	</g>
	<g class="st5">
		<g>
			<path d="M547.35,550.9c4.2,29.17,8.39,58.43,9.13,87.94c0.21,8.38,0.13,16.76-0.29,25.13c0.85-0.35,1.71-0.71,2.56-1.06
				c-22.83-20.95-44.59-43.07-65.17-66.25c-5.82-6.55-11.54-13.2-17.17-19.92c-1.24-1.48-3.35,0.65-2.12,2.12
				c19.9,23.76,41,46.5,63.22,68.11c6.28,6.11,12.66,12.13,19.12,18.05c0.98,0.9,2.49,0.25,2.56-1.06c1.51-29.77-1.49-59.52-5.45-89
				c-1.11-8.29-2.3-16.58-3.5-24.86C549.97,548.2,547.08,549.01,547.35,550.9L547.35,550.9z"/>
		</g>
	</g>
	<g class="st5">
		<g>
			<path d="M379.62,612.78c5.31,11.46,13.11,21.78,22.73,29.97c9.24,7.87,21.09,15.12,33.73,12.78c6.08-1.13,11.8-4.57,14.93-9.99
				c0.97-1.67-1.62-3.19-2.59-1.51c-2.58,4.47-7.13,7.24-12.08,8.39c-5.5,1.28-11.19,0.3-16.36-1.81
				c-5.57-2.28-10.62-5.84-15.2-9.71c-4.52-3.81-8.64-8.09-12.29-12.74c-4.07-5.2-7.51-10.9-10.29-16.89
				C381.4,609.52,378.81,611.04,379.62,612.78L379.62,612.78z"/>
		</g>
	</g>
	<g class="st5">
		<g>
			<path d="M729.3,543.67c2.7,4.64,6.56,8.4,10.15,12.33c3.38,3.71,6.76,7.84,7.59,12.95c0.94,5.83-1.97,11.35-5.5,15.76
				c-4.13,5.16-9.21,9.57-13.98,14.13c-6.09,5.83-12.17,11.65-18.26,17.48c0.61-0.08,1.21-0.16,1.82-0.23
				c-23.31-11.96-47.7-21.81-72.79-29.36c-7.13-2.15-14.32-4.1-21.56-5.87c-1.87-0.46-2.67,2.43-0.8,2.89
				c25.34,6.21,50.13,14.71,73.92,25.43c6.65,3,13.22,6.17,19.71,9.5c0.61,0.31,1.32,0.25,1.82-0.23
				c5.67-5.43,11.34-10.85,17.01-16.28c5.08-4.86,10.52-9.55,14.98-15.01c3.79-4.65,6.99-10.23,6.79-16.42
				c-0.18-5.52-3-10.23-6.44-14.36c-3.95-4.74-8.73-8.83-11.86-14.21C730.92,540.49,728.32,542,729.3,543.67L729.3,543.67z"/>
		</g>
	</g>
	<g class="st5">
		<g>
			<path d="M259.47,239.99c1.93,0,1.93-3,0-3C257.54,236.99,257.53,239.99,259.47,239.99L259.47,239.99z"/>
		</g>
	</g>
</g>
</svg>
